<?xml version="1.0" standalone="no"?>
<!DOCTYPE svg PUBLIC "-//W3C//DTD SVG 20010904//EN"
 "http://www.w3.org/TR/2001/REC-SVG-20010904/DTD/svg10.dtd">
<svg version="1.0" xmlns="http://www.w3.org/2000/svg"
 width="150.000000pt" height="150.000000pt" viewBox="0 0 150.000000 150.000000"
 preserveAspectRatio="xMidYMid meet">

<g transform="translate(0.000000,150.000000) scale(0.100000,-0.100000)"
fill="#000000" stroke="none">
<path d="M551 1430 c-120 -32 -195 -83 -257 -177 -81 -123 -119 -307 -111
-543 6 -182 27 -282 78 -387 72 -149 167 -217 356 -256 20 -4 22 0 27 77 3 44
10 207 16 361 6 154 15 284 19 288 4 4 39 7 77 5 l69 -3 5 -163 c3 -89 9 -163
14 -164 5 0 62 49 127 111 64 61 124 111 131 111 18 0 68 -52 68 -71 0 -7 -72
-95 -160 -194 l-160 -180 1 -65 c1 -36 4 -77 8 -91 l6 -26 63 13 c225 46 341
196 387 504 28 181 13 363 -44 542 -47 145 -122 234 -244 286 -99 42 -352 54
-476 22z"/>
</g>
</svg>
